<?xml version="1.0" encoding="UTF-8" standalone="no"?>
<!-- Created with Inkscape (http://www.inkscape.org/) -->

<svg
   width="658.96802mm"
   height="205.00145mm"
   viewBox="0 0 658.96804 205.00145"
   version="1.1"
   id="svg5"
   inkscape:version="1.1.1 (3bf5ae0d25, 2021-09-20)"
   sodipodi:docname="NFU_GDT_long_GDT_only.svg"
   inkscape:export-filename="X:\(GDT)\NFU_GDT_long_together.png"
   inkscape:export-xdpi="300"
   inkscape:export-ydpi="300"
   xmlns:inkscape="http://www.inkscape.org/namespaces/inkscape"
   xmlns:sodipodi="http://sodipodi.sourceforge.net/DTD/sodipodi-0.dtd"
   xmlns="http://www.w3.org/2000/svg"
   xmlns:svg="http://www.w3.org/2000/svg">
  <sodipodi:namedview
     id="namedview7"
     pagecolor="#ffffff"
     bordercolor="#666666"
     borderopacity="1.0"
     inkscape:pageshadow="2"
     inkscape:pageopacity="1"
     inkscape:pagecheckerboard="0"
     inkscape:document-units="mm"
     showgrid="false"
     inkscape:zoom="0.13716686"
     inkscape:cx="2624.5407"
     inkscape:cy="860.2661"
     inkscape:window-width="1920"
     inkscape:window-height="1057"
     inkscape:window-x="-8"
     inkscape:window-y="455"
     inkscape:window-maximized="1"
     inkscape:current-layer="g313"
     fit-margin-top="40"
     fit-margin-left="40"
     fit-margin-right="40"
     fit-margin-bottom="40" />
  <defs
     id="defs2" />
  <g
     inkscape:label="Layer 1"
     inkscape:groupmode="layer"
     id="layer1"
     transform="translate(498.07901,-37.757807)">
    <g
       id="g313"
       transform="matrix(0.26458333,0,0,0.26458333,-116.33735,87.96043)">
      <g
         id="g162"
         transform="matrix(1.4021909,0,0,1.4021909,-1357.934,-97.360444)">
        <path
           class="st10"
           d="m 586.34,93.11 c 9.76,1.57 16.41,3.13 19.92,4.69 2.34,0.39 3.31,2.15 2.93,5.27 -0.39,0.39 -0.59,1.17 -0.59,2.34 -0.39,1.17 -0.59,1.96 -0.59,2.34 h 35.16 l 5.86,-8.79 16.41,11.72 -4.69,8.79 H 534.77 l -2.93,-11.72 h 59.77 c -0.79,-0.38 -1.96,-1.36 -3.52,-2.93 -3.13,-1.95 -5.47,-3.71 -7.03,-5.27 z m -16.41,89.06 h 19.34 v 2.93 h 16.99 l 5.86,-6.45 h -52.73 v 53.91 h -20.51 v -68.55 h 20.51 v 2.93 h 76.17 l 7.03,-8.2 19.34,12.3 -4.69,5.27 v 37.5 c 1.56,12.89 -6.06,19.53 -22.85,19.92 0,-6.25 -4.5,-9.18 -13.48,-8.79 l -0.59,-0.59 h -12.3 v -7.03 h -18.75 v 7.03 h -19.34 z m -10.55,-57.42 h 19.34 v 2.34 h 38.09 l 6.45,-7.03 18.16,11.72 -4.69,5.27 v 24.02 h -19.34 v -2.34 h -38.67 v 2.34 h -19.34 z m 19.34,13.48 v 9.38 h 38.67 v -9.38 z m 10.55,58.01 v 9.38 h 18.75 v -9.38 z m 38.08,21.09 c 7.03,0.38 10.15,-1.36 9.38,-5.27 v -33.4 H 612.7 l 18.16,11.13 -3.52,4.1 v 23.44 z"
           id="path148" />
        <path
           class="st10"
           d="m 686.4,125.34 h 18.16 V 94.87 h 18.75 v 30.47 h 2.34 l 4.1,-5.86 13.48,11.72 -4.1,7.03 h -15.82 v 8.2 l 2.34,-2.34 c 5.86,4.3 10.93,8.6 15.23,12.89 1.17,0.79 1.17,2.34 0,4.69 -1.96,3.91 -4.3,7.23 -7.03,9.96 -2.34,1.57 -3.91,1.17 -4.69,-1.17 -0.39,-0.78 -0.79,-2.14 -1.17,-4.1 -0.79,-1.95 -2.34,-5.66 -4.69,-11.13 v 77.93 h -18.75 v -56.84 c -4.69,8.2 -9.77,15.63 -15.23,22.27 l -7.62,-5.27 c 8.98,-16.79 15.82,-35.16 20.51,-55.08 h -13.48 z m 49.81,44.53 c 8.98,-12.1 16.21,-25.39 21.68,-39.84 l 18.75,8.79 c -5.86,8.2 -11.72,15.44 -17.58,21.68 l 5.27,-1.76 c 3.52,9.38 7.81,17.58 12.89,24.61 4.29,-8.2 7.62,-17.58 9.96,-28.13 l 15.23,4.69 c -5.86,-7.81 -11.72,-15.03 -17.58,-21.68 l 4.69,-5.86 c 13.67,6.25 23.63,11.72 29.88,16.41 1.95,1.17 2.34,3.13 1.17,5.86 -1.57,5.86 -3.52,10.16 -5.86,12.89 -1.17,1.96 -2.34,2.93 -3.52,2.93 -0.79,0 -1.76,-0.78 -2.93,-2.34 -1.17,-1.17 -1.96,-2.34 -2.34,-3.52 -4.3,12.89 -9.38,23.64 -15.23,32.23 8.2,7.03 19.92,12.3 35.16,15.82 -5.47,5.86 -9.96,12.69 -13.48,20.51 -14.46,-5.86 -25.98,-13.09 -34.57,-21.68 -11.72,9.76 -26.57,16.99 -44.53,21.68 l -4.69,-7.62 c 16.41,-7.42 29.3,-16.6 38.67,-27.54 -5.47,-9.38 -9.96,-20.11 -13.48,-32.23 -1.17,1.57 -3.13,3.52 -5.86,5.86 -2.34,1.96 -3.91,3.32 -4.69,4.1 z m 1.75,-55.66 h 34.57 c -4.3,-5.86 -8.01,-10.55 -11.13,-14.06 l 5.27,-6.45 c 8.59,2.74 15.82,5.86 21.68,9.38 1.95,1.17 2.34,2.93 1.17,5.27 -0.39,0.79 -0.79,1.96 -1.17,3.52 -0.79,1.17 -1.17,1.96 -1.17,2.34 h 15.23 l 5.27,-7.03 16.41,11.72 -4.69,8.79 h -77.93 z"
           id="path150" />
        <path
           class="st10"
           d="m 842.71,221.43 c 7.81,-8.2 13.48,-16.41 16.99,-24.61 h -4.1 V 164.6 h 18.75 v 3.52 h 28.13 l 5.27,-6.45 18.16,11.13 -4.1,4.1 v 19.92 h -18.75 v -2.93 h -3.52 v 25.2 c 1.95,8.59 -5.27,13.28 -21.68,14.06 -0.79,-4.69 -4.3,-7.62 -10.55,-8.79 l -1.76,-8.2 c 11.72,1.56 16.79,-0.19 15.23,-5.27 V 193.9 h -6.45 v 2.93 H 863.2 l 14.65,8.2 c -7.42,7.82 -16.99,15.03 -28.71,21.68 z m 0.59,-72.07 h 38.67 c -0.39,-1.17 -1.17,-2.73 -2.34,-4.69 -0.39,-1.17 -0.79,-1.95 -1.17,-2.34 h -5.27 v 2.34 H 854.44 V 96.63 h 18.75 v 2.93 h 29.88 l 6.45,-7.03 18.75,12.3 -5.27,6.45 v 33.4 h -1.17 l 12.89,9.38 -5.27,7.03 h -83.79 z m 29.88,-39.26 v 5.86 h 31.05 v -5.86 z m 0,15.82 v 5.86 h 31.05 v -5.86 z m 1.17,52.15 v 5.86 h 28.71 v -5.86 z m 23.44,-28.71 h 16.41 l 4.1,-4.69 h -14.06 v -2.34 h -10.55 c 0.38,0.39 0.78,0.59 1.17,0.59 0.78,0.39 1.76,1.17 2.93,2.34 1.56,1.17 1.56,2.54 0,4.1 z m 9.38,48.05 c 0.78,0.39 2.14,0.98 4.1,1.76 6.64,3.13 10.93,5.27 12.89,6.45 1.95,1.17 2.54,2.74 1.76,4.69 -1.57,2.74 -3.72,5.86 -6.45,9.38 -1.17,1.56 -2.15,2.34 -2.93,2.34 -1.17,-0.39 -2.15,-1.37 -2.93,-2.93 -2.74,-5.07 -6.65,-10.55 -11.72,-16.41 z m 11.72,28.12 c 19.13,-15.23 33.98,-32.61 44.53,-52.15 l 19.34,13.48 c -16.02,17.97 -34.77,33.2 -56.25,45.7 z m 5.86,-86.13 c 11.72,-13.28 20.7,-27.73 26.95,-43.36 l 21.09,11.13 c -11.72,13.68 -24.81,26.37 -39.26,38.09 z m 3.51,40.43 c 12.89,-13.28 23.44,-28.9 31.64,-46.88 l 19.34,12.89 c -13.28,15.23 -27.35,28.52 -42.19,39.84 z"
           id="path152" />
        <path
           class="st10"
           d="m 1004.89,111.86 h 17.58 v 3.52 h 5.86 l 4.69,-7.03 16.99,10.55 -4.1,7.03 v 80.86 h -16.41 v -6.45 h -7.03 v 10.55 h -17.58 z m 17.58,16.99 v 58.01 h 7.03 v -58.01 z m 28.12,-11.13 h 17.58 v 2.34 h 4.69 c 0.78,-2.73 1.56,-7.22 2.34,-13.48 1.17,-5.86 1.95,-10.15 2.34,-12.89 l 22.27,4.69 c -5.08,8.2 -9.38,15.44 -12.89,21.68 h 25.78 l 5.27,-8.2 19.92,11.72 -3.52,6.45 v 80.27 c 2.34,14.84 -5.27,22.06 -22.85,21.68 -1.17,-5.47 -5.08,-8.4 -11.72,-8.79 -0.79,0 -1.37,0 -1.76,0 l -0.59,-9.38 c 12.5,1.17 18.16,-0.97 16.99,-6.45 v -73.83 h -46.29 v 98.44 h -17.58 V 117.72 Z m 21.68,25.2 h 14.65 v 2.93 h 6.45 l 2.93,-5.86 15.82,7.62 -2.93,4.69 v 51.56 h -15.23 v -8.79 h -7.03 v 11.13 h -14.65 v -63.28 z m 14.65,15.23 v 24.61 h 7.03 v -24.61 z"
           id="path154" />
        <path
           class="st10"
           d="m 1210.42,94.87 h 23.44 v 25.78 3.52 h 22.85 l 7.03,-8.79 24.02,15.82 -6.45,6.45 c -1.17,28.91 -2.74,51.56 -4.69,67.97 0.38,15.62 -9.38,23.24 -29.3,22.85 0,-7.03 -6.45,-11.53 -19.34,-13.48 l -1.17,-9.96 c 8.59,0.79 15.23,1.17 19.92,1.17 4.29,0.39 6.64,-1.56 7.03,-5.86 1.95,-19.13 3.12,-39.64 3.52,-61.52 h -24.02 c -2.34,42.97 -22.66,74.41 -60.94,94.34 l -8.79,-8.79 c 28.9,-20.7 44.33,-49.22 46.29,-85.55 h -36.33 l -2.34,-14.65 h 39.26 v -3.52 -25.78 z"
           id="path156" />
        <path
           class="st10"
           d="m 1321.62,120.06 h 21.09 v 4.69 h 28.71 v -29.3 h 21.68 v 29.3 h 27.54 l 7.03,-8.79 21.09,14.65 -5.86,7.62 v 50.98 h -21.09 v -6.45 h -28.71 v 50.39 h -21.68 v -50.39 h -28.71 v 6.45 h -21.09 z m 21.09,18.75 v 29.88 h 28.71 v -29.88 z m 50.39,0 v 29.88 h 28.71 v -29.88 z"
           id="path158" />
        <path
           class="st10"
           d="m 1496.1,141.74 c 1.17,16.41 1.56,33.6 1.17,51.56 0,4.69 -1.57,7.62 -4.69,8.79 -5.47,0.79 -10.94,1.17 -16.41,1.17 -4.69,-0.38 -6.06,-3.12 -4.1,-8.2 4.69,-15.23 8.79,-33.4 12.3,-54.49 z m 45.7,67.97 h 9.38 c 8.2,1.17 13.48,-5.27 15.82,-19.34 l 9.96,2.34 c -2.34,10.55 0,16.02 7.03,16.41 -2.34,14.45 -10.16,20.89 -23.44,19.34 h -29.88 c -12.51,0 -18.75,-6.45 -18.75,-19.34 v -72.07 h 21.68 v 65.04 c 0,4.69 2.72,7.24 8.2,7.62 z m -4.69,-108.98 c 7.81,8.2 15.62,17.78 23.44,28.71 2.73,4.69 2.93,8.2 0.59,10.55 -3.52,3.52 -7.42,6.45 -11.72,8.79 -3.91,2.34 -6.65,0.98 -8.2,-4.1 -3.91,-14.06 -8.79,-27.34 -14.65,-39.84 z m 42.77,41.01 c 8.98,10.55 17.58,23.05 25.78,37.5 2.73,4.3 2.93,7.82 0.59,10.55 -3.13,3.52 -7.03,6.84 -11.72,9.96 -3.91,2.34 -6.45,0.79 -7.62,-4.69 -3.13,-11.72 -9.18,-28.13 -18.16,-49.22 z"
           id="path160" />
      </g>
      <g
         id="g230"
         transform="matrix(1.4021909,0,0,1.4021909,-1357.934,-97.360444)">
        <path
           class="st17"
           d="m 552.25,310.27 c 2.39,0 4.72,-0.35 6.97,-1.05 2.25,-0.7 3.99,-1.59 5.22,-2.67 v -6.09 h -10.75 v -6.81 h 19.18 v 16.19 c -2.33,2.4 -5.37,4.27 -9.11,5.63 -3.74,1.35 -7.66,2.03 -11.76,2.03 -7.17,0 -12.67,-1.98 -16.53,-5.95 -3.85,-3.97 -5.78,-9.6 -5.78,-16.89 0,-7.25 1.94,-12.81 5.81,-16.67 3.87,-3.86 9.45,-5.8 16.71,-5.8 10.33,0 16.9,3.82 19.71,11.47 l -8.5,2.56 c -0.92,-2.23 -2.35,-3.92 -4.31,-5.06 -1.96,-1.15 -4.26,-1.72 -6.9,-1.72 -4.33,0 -7.62,1.31 -9.87,3.94 -2.25,2.63 -3.37,6.39 -3.37,11.28 0,4.98 1.16,8.83 3.48,11.55 2.33,2.7 5.59,4.06 9.8,4.06 z"
           id="path164" />
        <path
           class="st18"
           d="m 619.54,294.52 c 0,4.54 -0.89,8.51 -2.67,11.89 -1.78,3.39 -4.3,5.97 -7.56,7.77 -3.26,1.79 -6.99,2.69 -11.2,2.69 H 580.3 v -44.03 h 15.93 c 7.42,0 13.15,1.87 17.21,5.61 4.07,3.74 6.1,9.09 6.1,16.07 z m -9.28,0 c 0,-4.73 -1.23,-8.34 -3.69,-10.83 -2.46,-2.49 -5.97,-3.73 -10.53,-3.73 h -6.53 v 29.78 h 7.81 c 3.96,0 7.1,-1.36 9.43,-4.09 2.34,-2.73 3.51,-6.44 3.51,-11.13 z"
           id="path166" />
        <path
           class="st19"
           d="m 620.34,317.65 13.28,-47.38 h 4.5 l -13.25,47.38 z"
           id="path168" />
        <path
           class="st20"
           d="m 648.76,316.87 v -2.28 l 6.65,-0.84 v -35.47 h -1.59 c -4.77,0 -8.12,0.21 -10.06,0.63 l -0.84,7.78 h -2.84 v -11.72 h 40.71 v 11.72 h -2.87 l -0.84,-7.78 c -1.73,-0.38 -5.14,-0.56 -10.25,-0.56 h -1.53 v 35.41 l 6.65,0.84 v 2.28 h -23.19 z"
           id="path170" />
        <path
           class="st19"
           d="m 708.04,316.87 v -28.81 h -4.97 v -4.38 h 4.97 v -3.53 c 0,-2.23 0.2,-3.89 0.59,-4.97 0.54,-1.46 1.49,-2.64 2.86,-3.55 1.36,-0.91 3.27,-1.36 5.73,-1.36 1.58,0 3.33,0.19 5.25,0.56 l -0.84,4.91 c -1.17,-0.21 -2.27,-0.31 -3.31,-0.31 -1.71,0 -2.92,0.36 -3.62,1.09 -0.71,0.73 -1.06,2.09 -1.06,4.09 v 3.06 h 6.47 v 4.38 h -6.47 v 28.81 h -5.6 z"
           id="path172" />
        <path
           class="st19"
           d="m 720.9,300.27 c 0,-6.15 1.71,-10.7 5.12,-13.66 2.85,-2.46 6.33,-3.69 10.43,-3.69 4.56,0 8.29,1.5 11.18,4.48 2.89,2.99 4.34,7.12 4.34,12.39 0,4.27 -0.64,7.63 -1.92,10.08 -1.28,2.45 -3.14,4.35 -5.59,5.7 -2.45,1.35 -5.12,2.03 -8.01,2.03 -4.64,0 -8.4,-1.49 -11.26,-4.47 -2.85,-2.96 -4.29,-7.25 -4.29,-12.86 z m 5.78,0 c 0,4.25 0.93,7.43 2.78,9.55 1.85,2.11 4.19,3.17 7,3.17 2.79,0 5.11,-1.06 6.97,-3.19 1.86,-2.13 2.78,-5.36 2.78,-9.72 0,-4.1 -0.93,-7.21 -2.8,-9.33 -1.86,-2.11 -4.18,-3.17 -6.95,-3.17 -2.81,0 -5.14,1.05 -7,3.16 -1.85,2.11 -2.78,5.28 -2.78,9.53 z"
           id="path174" />
        <path
           class="st19"
           d="m 757.39,316.87 v -33.19 h 5.06 v 5.03 c 1.29,-2.35 2.48,-3.91 3.58,-4.66 1.09,-0.75 2.3,-1.13 3.61,-1.13 1.9,0 3.82,0.6 5.78,1.81 l -1.94,5.22 c -1.37,-0.81 -2.75,-1.22 -4.12,-1.22 -1.23,0 -2.33,0.37 -3.31,1.11 -0.98,0.74 -1.68,1.77 -2.09,3.08 -0.63,2 -0.94,4.19 -0.94,6.56 v 17.38 h -5.63 z"
           id="path176" />
        <path
           class="st17"
           d="m 820.44,310.27 c 2.39,0 4.72,-0.35 6.97,-1.05 2.25,-0.7 3.99,-1.59 5.22,-2.67 v -6.09 h -10.75 v -6.81 h 19.18 v 16.19 c -2.33,2.4 -5.37,4.27 -9.11,5.63 -3.74,1.35 -7.66,2.03 -11.76,2.03 -7.17,0 -12.67,-1.98 -16.53,-5.95 -3.85,-3.97 -5.78,-9.6 -5.78,-16.89 0,-7.25 1.94,-12.81 5.81,-16.67 3.87,-3.86 9.45,-5.8 16.71,-5.8 10.33,0 16.9,3.82 19.71,11.47 l -8.5,2.56 c -0.92,-2.23 -2.35,-3.92 -4.31,-5.06 -1.96,-1.15 -4.26,-1.72 -6.9,-1.72 -4.33,0 -7.62,1.31 -9.87,3.94 -2.25,2.63 -3.37,6.39 -3.37,11.28 0,4.98 1.16,8.83 3.48,11.55 2.33,2.7 5.6,4.06 9.8,4.06 z"
           id="path178" />
        <path
           class="st21"
           d="m 848.21,316.87 v -25.94 c 0,-2.38 -0.06,-5 -0.19,-7.88 h 5.31 c 0.17,3.83 0.25,6.14 0.25,6.91 h 0.13 c 0.9,-2.9 1.93,-4.88 3.09,-5.94 1.17,-1.06 2.81,-1.59 4.94,-1.59 0.75,0 1.51,0.1 2.28,0.31 v 5.16 c -0.75,-0.21 -1.75,-0.31 -3,-0.31 -2.33,0 -4.12,1.01 -5.34,3.02 -1.23,2.01 -1.84,4.89 -1.84,8.64 v 17.63 h -5.63 z"
           id="path180" />
        <path
           class="st21"
           d="m 875.1,301.15 c 0,3.88 0.8,6.86 2.41,8.97 1.6,2.1 3.95,3.16 7.03,3.16 2.44,0 4.39,-0.49 5.86,-1.47 1.47,-0.98 2.46,-2.22 2.98,-3.72 l 4.94,1.41 c -2.02,5.33 -6.62,8 -13.78,8 -5,0 -8.81,-1.49 -11.42,-4.47 -2.62,-2.98 -3.92,-7.41 -3.92,-13.28 0,-5.58 1.31,-9.86 3.92,-12.84 2.61,-2.98 6.35,-4.47 11.2,-4.47 9.94,0 14.91,5.99 14.91,17.97 v 0.75 H 875.1 Z m 18.31,-4.31 c -0.31,-3.56 -1.22,-6.16 -2.72,-7.8 -1.5,-1.64 -3.66,-2.45 -6.47,-2.45 -2.73,0 -4.89,0.91 -6.48,2.73 -1.59,1.82 -2.45,4.33 -2.58,7.52 z"
           id="path182" />
        <path
           class="st21"
           d="m 912.5,301.15 c 0,3.88 0.8,6.86 2.41,8.97 1.6,2.1 3.95,3.16 7.03,3.16 2.44,0 4.39,-0.49 5.86,-1.47 1.47,-0.98 2.46,-2.22 2.98,-3.72 l 4.94,1.41 c -2.02,5.33 -6.62,8 -13.78,8 -5,0 -8.81,-1.49 -11.42,-4.47 -2.62,-2.98 -3.92,-7.41 -3.92,-13.28 0,-5.58 1.31,-9.86 3.92,-12.84 2.61,-2.98 6.35,-4.47 11.2,-4.47 9.94,0 14.91,5.99 14.91,17.97 v 0.75 H 912.5 Z m 18.31,-4.31 c -0.31,-3.56 -1.22,-6.16 -2.72,-7.8 -1.5,-1.64 -3.66,-2.45 -6.47,-2.45 -2.73,0 -4.89,0.91 -6.48,2.73 -1.59,1.82 -2.45,4.33 -2.58,7.52 z"
           id="path184" />
        <path
           class="st21"
           d="m 966.74,316.87 v -21.44 c 0,-2.23 -0.22,-3.96 -0.66,-5.19 -0.44,-1.23 -1.14,-2.11 -2.09,-2.66 -0.96,-0.54 -2.37,-0.81 -4.22,-0.81 -2.71,0 -4.84,0.93 -6.41,2.78 -1.56,1.85 -2.34,4.43 -2.34,7.72 v 19.59 h -5.63 v -26.59 c 0,-3.94 -0.06,-6.34 -0.19,-7.22 h 5.31 c 0.02,0.1 0.04,0.39 0.06,0.84 0.02,0.46 0.05,0.98 0.08,1.58 0.03,0.6 0.07,1.71 0.11,3.36 h 0.09 c 1.29,-2.33 2.79,-3.98 4.48,-4.95 1.7,-0.97 3.81,-1.45 6.33,-1.45 3.71,0 6.42,0.92 8.14,2.77 1.72,1.85 2.58,4.89 2.58,9.14 v 22.53 z"
           id="path186" />
        <path
           class="st18"
           d="m 1043.75,294.52 c 0,4.54 -0.89,8.51 -2.67,11.89 -1.78,3.39 -4.3,5.97 -7.56,7.77 -3.26,1.79 -6.99,2.69 -11.2,2.69 h -17.81 v -44.03 h 15.93 c 7.42,0 13.15,1.87 17.21,5.61 4.06,3.74 6.1,9.09 6.1,16.07 z m -9.28,0 c 0,-4.73 -1.23,-8.34 -3.69,-10.83 -2.46,-2.49 -5.97,-3.73 -10.53,-3.73 h -6.53 v 29.78 h 7.81 c 3.96,0 7.1,-1.36 9.43,-4.09 2.34,-2.73 3.51,-6.44 3.51,-11.13 z"
           id="path188" />
        <path
           class="st18"
           d="m 1049.94,275.87 v -5.38 h 5.62 v 5.38 z m 0,41 v -33.81 h 5.62 v 33.81 z"
           id="path190" />
        <path
           class="st18"
           d="m 1076.09,330.15 c -3.69,0 -6.62,-0.72 -8.81,-2.17 -2.19,-1.45 -3.59,-3.51 -4.22,-6.17 l 5.65,-0.81 c 0.38,1.56 1.2,2.77 2.48,3.61 1.28,0.84 2.96,1.27 5.04,1.27 5.6,0 8.4,-3.28 8.4,-9.84 v -5.44 h -0.06 c -1.06,2.17 -2.52,3.8 -4.37,4.89 -1.85,1.09 -4.02,1.64 -6.5,1.64 -4.14,0 -7.19,-1.38 -9.14,-4.13 -1.95,-2.75 -2.92,-7.07 -2.92,-12.97 0,-5.98 1.05,-10.39 3.14,-13.23 2.09,-2.84 5.27,-4.27 9.54,-4.27 2.39,0 4.47,0.55 6.23,1.64 1.76,1.09 3.12,2.65 4.08,4.67 h 0.06 c 0,-0.63 0.04,-1.71 0.13,-3.25 0.08,-1.54 0.17,-2.39 0.25,-2.53 h 5.34 c -0.13,1.13 -0.19,3.46 -0.19,7 v 25.84 c 0.02,9.5 -4.69,14.25 -14.13,14.25 z m 8.56,-30.19 c 0,-2.75 -0.38,-5.12 -1.13,-7.11 -0.75,-1.99 -1.81,-3.51 -3.17,-4.56 -1.36,-1.05 -2.91,-1.58 -4.64,-1.58 -2.87,0 -4.97,1.04 -6.28,3.13 -1.31,2.08 -1.97,5.46 -1.97,10.13 0,4.63 0.61,7.95 1.84,9.97 1.23,2.02 3.33,3.03 6.31,3.03 1.77,0 3.34,-0.52 4.72,-1.56 1.38,-1.04 2.44,-2.54 3.19,-4.48 0.76,-1.96 1.13,-4.28 1.13,-6.97 z"
           id="path192" />
        <path
           class="st18"
           d="m 1097.61,275.87 v -5.38 h 5.62 v 5.38 z m 0,41 v -33.81 h 5.62 v 33.81 z"
           id="path194" />
        <path
           class="st18"
           d="m 1123.84,316.62 c -1.85,0.5 -3.75,0.75 -5.69,0.75 -4.5,0 -6.75,-2.55 -6.75,-7.66 v -22.56 h -3.91 v -4.09 h 4.12 l 1.66,-7.56 h 3.75 v 7.56 h 6.25 v 4.09 h -6.25 v 21.34 c 0,1.63 0.27,2.77 0.8,3.42 0.53,0.65 1.45,0.98 2.76,0.98 0.75,0 1.83,-0.15 3.25,-0.44 v 4.17 z"
           id="path196" />
        <path
           class="st18"
           d="m 1137.02,317.49 c -3.39,0 -5.95,-0.9 -7.65,-2.69 -1.71,-1.79 -2.56,-4.25 -2.56,-7.38 0,-3.5 1.15,-6.19 3.45,-8.06 2.3,-1.87 6.01,-2.88 11.14,-3 l 7.59,-0.13 v -1.84 c 0,-2.75 -0.58,-4.72 -1.75,-5.91 -1.17,-1.19 -3,-1.78 -5.5,-1.78 -2.52,0 -4.35,0.43 -5.5,1.28 -1.15,0.85 -1.83,2.22 -2.06,4.09 l -5.87,-0.53 c 0.96,-6.08 5.48,-9.13 13.56,-9.13 4.25,0 7.45,0.97 9.59,2.92 2.15,1.95 3.22,4.77 3.22,8.45 v 14.56 c 0,1.67 0.22,2.92 0.66,3.77 0.44,0.85 1.27,1.27 2.5,1.27 0.54,0 1.16,-0.07 1.84,-0.22 v 3.5 c -1.42,0.33 -2.86,0.5 -4.34,0.5 -2.08,0 -3.6,-0.55 -4.54,-1.64 -0.95,-1.09 -1.48,-2.81 -1.61,-5.14 H 1149 c -1.44,2.58 -3.11,4.41 -5.01,5.48 -1.93,1.1 -4.25,1.63 -6.97,1.63 z m 1.28,-4.22 c 2.06,0 3.89,-0.47 5.5,-1.41 1.6,-0.94 2.87,-2.22 3.79,-3.86 0.93,-1.64 1.39,-3.32 1.39,-5.05 v -2.78 l -6.15,0.13 c -2.65,0.04 -4.65,0.31 -6.01,0.81 -1.36,0.5 -2.41,1.27 -3.14,2.31 -0.73,1.04 -1.09,2.41 -1.09,4.09 0,1.83 0.49,3.25 1.48,4.25 0.99,1 2.39,1.51 4.23,1.51 z"
           id="path198" />
        <path
           class="st18"
           d="m 1163.53,316.87 v -46.38 h 5.62 v 46.38 z"
           id="path200" />
        <path
           class="st20"
           d="m 1218.3,279.96 v 36.91 h -9.22 v -36.91 h -14.21 v -7.13 h 37.68 v 7.13 z"
           id="path202" />
        <path
           class="st20"
           d="m 1231.13,316.87 v -25.94 c 0,-2.38 -0.06,-5 -0.19,-7.88 h 5.31 c 0.17,3.83 0.25,6.14 0.25,6.91 h 0.13 c 0.9,-2.9 1.93,-4.88 3.09,-5.94 1.17,-1.06 2.81,-1.59 4.94,-1.59 0.75,0 1.51,0.1 2.28,0.31 v 5.16 c -0.75,-0.21 -1.75,-0.31 -3,-0.31 -2.33,0 -4.11,1.01 -5.34,3.02 -1.23,2.01 -1.84,4.89 -1.84,8.64 v 17.63 h -5.63 z"
           id="path204" />
        <path
           class="st20"
           d="m 1259.51,317.49 c -3.39,0 -5.95,-0.9 -7.65,-2.69 -1.71,-1.79 -2.56,-4.25 -2.56,-7.38 0,-3.5 1.15,-6.19 3.45,-8.06 2.3,-1.87 6.01,-2.88 11.14,-3 l 7.59,-0.13 v -1.84 c 0,-2.75 -0.58,-4.72 -1.75,-5.91 -1.17,-1.19 -3,-1.78 -5.5,-1.78 -2.52,0 -4.35,0.43 -5.5,1.28 -1.15,0.85 -1.83,2.22 -2.06,4.09 l -5.87,-0.53 c 0.96,-6.08 5.48,-9.13 13.56,-9.13 4.25,0 7.45,0.97 9.59,2.92 2.15,1.95 3.22,4.77 3.22,8.45 v 14.56 c 0,1.67 0.22,2.92 0.66,3.77 0.44,0.85 1.27,1.27 2.5,1.27 0.54,0 1.16,-0.07 1.84,-0.22 v 3.5 c -1.42,0.33 -2.86,0.5 -4.34,0.5 -2.08,0 -3.6,-0.55 -4.54,-1.64 -0.95,-1.09 -1.48,-2.81 -1.61,-5.14 h -0.19 c -1.44,2.58 -3.11,4.41 -5.01,5.48 -1.92,1.1 -4.24,1.63 -6.97,1.63 z m 1.28,-4.22 c 2.06,0 3.89,-0.47 5.5,-1.41 1.6,-0.94 2.87,-2.22 3.79,-3.86 0.93,-1.64 1.39,-3.32 1.39,-5.05 v -2.78 l -6.15,0.13 c -2.65,0.04 -4.65,0.31 -6.01,0.81 -1.36,0.5 -2.41,1.27 -3.14,2.31 -0.73,1.04 -1.09,2.41 -1.09,4.09 0,1.83 0.49,3.25 1.48,4.25 0.99,1 2.4,1.51 4.23,1.51 z"
           id="path206" />
        <path
           class="st20"
           d="m 1307.42,316.87 v -21.44 c 0,-2.23 -0.22,-3.96 -0.66,-5.19 -0.44,-1.23 -1.14,-2.11 -2.09,-2.66 -0.96,-0.54 -2.36,-0.81 -4.22,-0.81 -2.71,0 -4.84,0.93 -6.4,2.78 -1.56,1.85 -2.34,4.43 -2.34,7.72 v 19.59 h -5.62 v -26.59 c 0,-3.94 -0.06,-6.34 -0.19,-7.22 h 5.31 c 0.02,0.1 0.04,0.39 0.06,0.84 0.02,0.46 0.05,0.98 0.08,1.58 0.03,0.6 0.07,1.71 0.11,3.36 h 0.09 c 1.29,-2.33 2.79,-3.98 4.48,-4.95 1.7,-0.97 3.81,-1.45 6.33,-1.45 3.71,0 6.42,0.92 8.14,2.77 1.72,1.85 2.58,4.89 2.58,9.14 v 22.53 z"
           id="path208" />
        <path
           class="st20"
           d="m 1345.74,307.52 c 0,3.19 -1.2,5.65 -3.61,7.38 -2.41,1.73 -5.78,2.59 -10.11,2.59 -4.21,0 -7.45,-0.69 -9.73,-2.08 -2.28,-1.39 -3.76,-3.55 -4.45,-6.48 l 4.97,-0.97 c 0.48,1.81 1.47,3.14 2.97,3.98 1.5,0.84 3.58,1.27 6.25,1.27 2.85,0 4.94,-0.44 6.26,-1.31 1.32,-0.88 1.98,-2.19 1.98,-3.94 0,-1.33 -0.46,-2.42 -1.37,-3.25 -0.92,-0.83 -2.4,-1.52 -4.44,-2.06 l -4.03,-1.06 c -3.23,-0.83 -5.52,-1.65 -6.89,-2.45 -1.36,-0.8 -2.43,-1.78 -3.2,-2.92 -0.77,-1.15 -1.16,-2.55 -1.16,-4.22 0,-3.08 1.1,-5.43 3.3,-7.05 2.2,-1.61 5.4,-2.42 9.61,-2.42 3.73,0 6.69,0.66 8.89,1.97 2.2,1.31 3.59,3.42 4.17,6.31 l -5.06,0.63 c -0.31,-1.5 -1.15,-2.65 -2.51,-3.45 -1.36,-0.8 -3.19,-1.2 -5.48,-1.2 -2.54,0 -4.42,0.39 -5.62,1.16 -1.21,0.77 -1.81,1.94 -1.81,3.5 0,0.96 0.25,1.75 0.75,2.38 0.5,0.63 1.24,1.16 2.22,1.59 0.98,0.44 3.04,1.04 6.19,1.81 2.98,0.75 5.12,1.44 6.44,2.08 1.31,0.64 2.35,1.34 3.11,2.11 0.76,0.77 1.35,1.66 1.77,2.67 0.38,0.99 0.59,2.14 0.59,3.43 z"
           id="path210" />
        <path
           class="st20"
           d="m 1358.64,287.15 v 29.72 h -5.62 v -29.72 h -4.75 v -4.09 h 4.75 v -3.81 c 0,-3.08 0.68,-5.3 2.03,-6.66 1.35,-1.35 3.43,-2.03 6.22,-2.03 1.56,0 2.88,0.13 3.97,0.38 v 4.28 c -0.94,-0.17 -1.77,-0.25 -2.5,-0.25 -1.44,0 -2.48,0.36 -3.12,1.09 -0.65,0.73 -0.97,2.05 -0.97,3.97 v 3.03 h 6.59 v 4.09 z"
           id="path212" />
        <path
           class="st20"
           d="m 1396.98,299.93 c 0,5.92 -1.3,10.32 -3.91,13.22 -2.6,2.9 -6.38,4.34 -11.34,4.34 -4.94,0 -8.66,-1.5 -11.18,-4.52 -2.52,-3.01 -3.78,-7.36 -3.78,-13.05 0,-11.67 5.05,-17.5 15.15,-17.5 5.17,0 8.97,1.42 11.4,4.27 2.43,2.85 3.66,7.26 3.66,13.24 z m -5.9,0 c 0,-4.67 -0.69,-8.06 -2.08,-10.17 -1.39,-2.11 -3.71,-3.17 -6.98,-3.17 -3.29,0 -5.67,1.08 -7.14,3.23 -1.47,2.15 -2.2,5.53 -2.2,10.11 0,4.46 0.72,7.81 2.17,10.05 1.45,2.24 3.72,3.36 6.83,3.36 3.37,0 5.79,-1.08 7.23,-3.25 1.44,-2.17 2.17,-5.56 2.17,-10.16 z"
           id="path214" />
        <path
           class="st20"
           d="m 1402.88,316.87 v -25.94 c 0,-2.38 -0.06,-5 -0.19,-7.88 h 5.31 c 0.17,3.83 0.25,6.14 0.25,6.91 h 0.13 c 0.9,-2.9 1.93,-4.88 3.09,-5.94 1.17,-1.06 2.81,-1.59 4.94,-1.59 0.75,0 1.51,0.1 2.28,0.31 v 5.16 c -0.75,-0.21 -1.75,-0.31 -3,-0.31 -2.33,0 -4.11,1.01 -5.34,3.02 -1.23,2.01 -1.84,4.89 -1.84,8.64 v 17.63 h -5.63 z"
           id="path216" />
        <path
           class="st20"
           d="m 1442.75,316.87 v -21.44 c 0,-3.27 -0.45,-5.53 -1.34,-6.78 -0.9,-1.25 -2.51,-1.88 -4.84,-1.88 -2.4,0 -4.29,0.92 -5.69,2.75 -1.4,1.83 -2.09,4.42 -2.09,7.75 v 19.59 h -5.59 v -26.59 c 0,-3.94 -0.06,-6.34 -0.19,-7.22 h 5.31 c 0.02,0.1 0.04,0.39 0.06,0.84 0.02,0.46 0.05,0.98 0.08,1.58 0.03,0.6 0.07,1.71 0.11,3.36 h 0.09 c 1.21,-2.4 2.59,-4.06 4.16,-5 1.56,-0.94 3.47,-1.41 5.72,-1.41 2.56,0 4.59,0.51 6.08,1.53 1.49,1.02 2.53,2.65 3.11,4.88 h 0.09 c 1.17,-2.27 2.58,-3.91 4.23,-4.91 1.66,-1 3.66,-1.5 6.01,-1.5 3.42,0 5.9,0.93 7.45,2.78 1.55,1.85 2.33,4.9 2.33,9.13 v 22.53 h -5.56 v -21.44 c 0,-3.27 -0.45,-5.53 -1.34,-6.78 -0.89,-1.25 -2.51,-1.88 -4.84,-1.88 -2.46,0 -4.37,0.91 -5.73,2.73 -1.36,1.82 -2.05,4.41 -2.05,7.77 v 19.59 h -5.57 z"
           id="path218" />
        <path
           class="st20"
           d="m 1483.65,317.49 c -3.39,0 -5.95,-0.9 -7.65,-2.69 -1.71,-1.79 -2.56,-4.25 -2.56,-7.38 0,-3.5 1.15,-6.19 3.45,-8.06 2.3,-1.87 6.01,-2.88 11.14,-3 l 7.59,-0.13 v -1.84 c 0,-2.75 -0.58,-4.72 -1.75,-5.91 -1.17,-1.19 -3,-1.78 -5.5,-1.78 -2.52,0 -4.35,0.43 -5.5,1.28 -1.15,0.85 -1.83,2.22 -2.06,4.09 l -5.87,-0.53 c 0.96,-6.08 5.48,-9.13 13.56,-9.13 4.25,0 7.45,0.97 9.59,2.92 2.15,1.95 3.22,4.77 3.22,8.45 v 14.56 c 0,1.67 0.22,2.92 0.66,3.77 0.44,0.85 1.27,1.27 2.5,1.27 0.54,0 1.16,-0.07 1.84,-0.22 v 3.5 c -1.42,0.33 -2.86,0.5 -4.34,0.5 -2.08,0 -3.6,-0.55 -4.54,-1.64 -0.95,-1.09 -1.48,-2.81 -1.61,-5.14 h -0.19 c -1.44,2.58 -3.11,4.41 -5.01,5.48 -1.93,1.1 -4.24,1.63 -6.97,1.63 z m 1.28,-4.22 c 2.06,0 3.89,-0.47 5.5,-1.41 1.6,-0.94 2.87,-2.22 3.79,-3.86 0.93,-1.64 1.39,-3.32 1.39,-5.05 v -2.78 l -6.15,0.13 c -2.65,0.04 -4.65,0.31 -6.01,0.81 -1.36,0.5 -2.41,1.27 -3.14,2.31 -0.73,1.04 -1.09,2.41 -1.09,4.09 0,1.83 0.49,3.25 1.48,4.25 0.99,1 2.4,1.51 4.23,1.51 z"
           id="path220" />
        <path
           class="st20"
           d="m 1522.71,316.62 c -1.85,0.5 -3.75,0.75 -5.69,0.75 -4.5,0 -6.75,-2.55 -6.75,-7.66 v -22.56 h -3.91 v -4.09 h 4.12 l 1.66,-7.56 h 3.75 v 7.56 h 6.25 v 4.09 h -6.25 v 21.34 c 0,1.63 0.27,2.77 0.8,3.42 0.53,0.65 1.45,0.98 2.76,0.98 0.75,0 1.83,-0.15 3.25,-0.44 v 4.17 z"
           id="path222" />
        <path
           class="st20"
           d="m 1526.78,275.87 v -5.38 h 5.62 v 5.38 z m 0,41 v -33.81 h 5.62 v 33.81 z"
           id="path224" />
        <path
           class="st20"
           d="m 1568.52,299.93 c 0,5.92 -1.3,10.32 -3.91,13.22 -2.6,2.9 -6.38,4.34 -11.34,4.34 -4.94,0 -8.66,-1.5 -11.18,-4.52 -2.52,-3.01 -3.78,-7.36 -3.78,-13.05 0,-11.67 5.05,-17.5 15.15,-17.5 5.17,0 8.97,1.42 11.4,4.27 2.43,2.85 3.66,7.26 3.66,13.24 z m -5.9,0 c 0,-4.67 -0.69,-8.06 -2.08,-10.17 -1.39,-2.11 -3.71,-3.17 -6.98,-3.17 -3.29,0 -5.67,1.08 -7.14,3.23 -1.47,2.15 -2.2,5.53 -2.2,10.11 0,4.46 0.72,7.81 2.17,10.05 1.45,2.24 3.72,3.36 6.83,3.36 3.37,0 5.79,-1.08 7.23,-3.25 1.44,-2.17 2.17,-5.56 2.17,-10.16 z"
           id="path226" />
        <path
           class="st20"
           d="m 1595.76,316.87 v -21.44 c 0,-2.23 -0.22,-3.96 -0.66,-5.19 -0.44,-1.23 -1.14,-2.11 -2.09,-2.66 -0.96,-0.54 -2.36,-0.81 -4.22,-0.81 -2.71,0 -4.84,0.93 -6.4,2.78 -1.56,1.85 -2.34,4.43 -2.34,7.72 v 19.59 h -5.62 v -26.59 c 0,-3.94 -0.06,-6.34 -0.19,-7.22 h 5.31 c 0.02,0.1 0.04,0.39 0.06,0.84 0.02,0.46 0.05,0.98 0.08,1.58 0.03,0.6 0.07,1.71 0.11,3.36 h 0.09 c 1.29,-2.33 2.79,-3.98 4.48,-4.95 1.7,-0.97 3.81,-1.45 6.33,-1.45 3.71,0 6.42,0.92 8.14,2.77 1.72,1.85 2.58,4.89 2.58,9.14 v 22.53 z"
           id="path228" />
      </g>
      <g
         id="g394"
         transform="matrix(1.2613505,0,0,1.2613505,-1372.5086,-91.761525)">
        <g
           id="g5502"
           transform="matrix(0.35277778,0,0,0.35277778,-41.09152,-106.78306)">
          <path
             id="path5443"
             class="st0"
             d="m 655.24,451.23 c 51.31,-17.76 105.35,-27.78 159.62,-28.98 -0.01,77.27 0,154.55 0,231.82 -25.69,1.28 -51.2,5.76 -75.72,13.52 -28.02,-72.09 -55.93,-144.25 -83.9,-216.36 z" />
          <path
             id="path5445"
             class="st1"
             d="m 848.25,422.4 c 53.58,1.74 106.87,11.9 157.41,29.75 -27.78,72.18 -55.45,144.41 -83.36,216.54 -23.91,-7.98 -48.89,-12.72 -74.03,-14.36 -0.07,-77.31 -0.04,-154.61 -0.02,-231.93 z" />
          <path
             id="path5447"
             class="st2"
             d="m 487.43,546.93 c 41,-34.63 87.26,-63.03 136.76,-83.79 27.99,72.07 55.88,144.16 83.82,216.24 -22.92,10.27 -44.62,23.31 -64.27,38.96 C 591.56,661.28 539.52,604.09 487.43,546.93 Z" />
          <path
             id="path5449"
             class="st3"
             d="m 1036.62,464.26 c 50.43,21.4 97.41,50.85 138.9,86.62 -52.17,57.02 -104.4,114.01 -156.58,171.03 -20,-16.42 -42.07,-30.34 -65.61,-41.1 27.74,-72.2 55.52,-144.37 83.29,-216.55 z" />
          <path
             id="path5451"
             class="st4"
             d="m 363.44,698.26 c 26.2,-47.79 59.81,-91.49 99.19,-129.16 52.07,57.12 104.14,114.23 156.21,171.34 -18.53,18.22 -34.53,38.96 -47.73,61.32 -69.23,-34.48 -138.49,-68.91 -207.67,-103.5 z" />
          <path
             id="path5453"
             class="st5"
             d="m 1167.68,608.63 c 10.9,-11.69 21.37,-23.8 32.56,-35.21 38.27,37.95 71.33,81.29 96.76,128.88 -69.15,34.51 -138.35,68.95 -207.49,103.48 -12.71,-22.32 -28.29,-42.97 -46.15,-61.43 41.47,-45.24 82.88,-90.5 124.32,-135.72 z" />
          <path
             id="path5455"
             class="st6"
             d="m 348.37,727.95 c 69.14,34.35 138.13,68.98 207.33,103.18 -10.15,23.96 -18.07,48.95 -22.04,74.71 -77.03,-6.91 -154.07,-13.81 -231.12,-20.73 7.04,-54.34 22.48,-107.59 45.83,-157.16 z" />
          <path
             id="path5457"
             class="st7"
             d="m 1104.29,835.48 c 69.18,-34.45 138.34,-68.96 207.5,-103.45 22.59,49.02 37.48,101.56 44.14,155.14 -76.96,7.26 -153.9,14.54 -230.85,21.8 -3.76,-25.26 -10.82,-49.99 -20.79,-73.49 z" />
          <path
             id="path5459"
             class="st8"
             d="m 299.33,918.39 c 77.01,6.57 153.98,13.72 230.97,20.56 -1.31,26.32 1.05,52.79 6.69,78.53 -74.34,21.35 -148.69,42.67 -223.03,64.01 -13.25,-53.19 -18.07,-108.41 -14.63,-163.1 z" />
          <path
             id="path5461"
             class="st9"
             d="m 1128.11,942.1 c 76.96,-7.27 153.9,-14.54 230.85,-21.81 3.34,53.83 -1.54,108.18 -14.58,160.53 -64.78,-18.58 -129.54,-37.21 -194.3,-55.83 -9.57,-2.86 -19.3,-5.28 -28.76,-8.47 5.68,-24.35 7.52,-49.47 6.79,-74.42 z" />
          <path
             id="path5463"
             class="st10"
             d="m 323.09,1113.5 c 74.24,-21.38 148.54,-42.58 222.78,-64.01 8.72,25.06 20.59,49.01 35.45,71 -61.51,46.78 -123.04,93.55 -184.57,140.3 -32.04,-44.85 -57,-94.74 -73.66,-147.29 z" />
          <path
             id="path5465"
             class="st11"
             d="m 1080.11,1115.63 c 13.56,-20.82 24.45,-43.35 32.5,-66.86 74.27,21.4 148.57,42.64 222.83,64.13 -16.12,50.63 -39.75,98.91 -70.19,142.47 -61.68,-46.62 -123.46,-93.1 -185.14,-139.74 z" />
          <path
             id="path5467"
             class="st12"
             d="m 1004.09,1195.55 c 20.93,-15.19 39.93,-33.04 56.34,-53.04 61.75,46.43 123.35,93.05 185.08,139.52 -33.85,42.82 -74.3,80.46 -119.54,111.01 -40.6,-65.85 -81.31,-131.63 -121.88,-197.49 z" />
          <path
             id="path5469"
             class="st13"
             d="m 416.91,1287.23 c 61.5,-46.8 123.06,-93.52 184.56,-140.32 17.03,19.76 36.45,37.51 57.95,52.32 -40.52,65.83 -81.26,131.53 -121.89,197.32 -45.44,-30.02 -86.29,-67 -120.62,-109.32 z" />
          <path
             id="path5471"
             class="st14"
             d="m 904.97,1242.49 c 24.8,-6.56 48.77,-16.31 71.11,-28.93 40.66,65.69 81.2,131.46 121.78,197.2 -46.52,27.46 -97.26,47.72 -149.91,59.82 -14.36,-76.02 -28.66,-152.06 -42.98,-228.09 z" />
          <path
             id="path5473"
             class="st15"
             d="m 565.82,1413.96 c 40.67,-65.76 81.29,-131.56 121.97,-197.31 23.17,12.46 47.99,21.87 73.62,27.85 -14.24,75.97 -28.64,151.9 -42.84,227.89 -53.53,-11.42 -105.33,-31.1 -152.75,-58.43 z" />
          <path
             id="path5475"
             class="st16"
             d="m 751.25,1478.28 c 14.3,-76.03 28.63,-152.05 42.93,-228.09 25.97,3.12 52.32,2.66 78.2,-1.05 14.25,75.95 28.66,151.89 42.87,227.87 -54.17,8.85 -109.71,9.28 -164,1.27 z" />
        </g>
        <g
           id="g240">
          <path
             class="st17"
             d="m 192.54,244.1 c 2.69,0 5.31,-0.39 7.84,-1.18 2.53,-0.79 4.49,-1.79 5.87,-3.01 v -6.86 h -12.09 v -7.66 h 21.58 v 18.21 c -2.63,2.7 -6.04,4.8 -10.25,6.33 -4.21,1.52 -8.62,2.29 -13.23,2.29 -8.06,0 -14.26,-2.23 -18.59,-6.7 -4.33,-4.47 -6.5,-10.8 -6.5,-19 0,-8.16 2.18,-14.41 6.54,-18.76 4.36,-4.35 10.63,-6.52 18.8,-6.52 11.62,0 19.01,4.3 22.18,12.9 l -9.56,2.88 c -1.03,-2.51 -2.65,-4.41 -4.85,-5.7 -2.2,-1.29 -4.79,-1.93 -7.77,-1.93 -4.87,0 -8.58,1.48 -11.11,4.43 -2.53,2.95 -3.8,7.18 -3.8,12.69 0,5.6 1.31,9.93 3.92,12.99 2.61,3.06 6.29,4.6 11.02,4.6 z"
             id="path232" />
          <path
             class="st18"
             d="m 268.08,226.38 c 0,5.11 -1,9.57 -3,13.38 -2,3.81 -4.84,6.72 -8.5,8.74 -3.67,2.02 -7.87,3.02 -12.6,3.02 h -20.03 v -49.54 h 17.92 c 8.34,0 14.8,2.1 19.37,6.31 4.56,4.21 6.84,10.24 6.84,18.09 z m -10.44,0 c 0,-5.32 -1.38,-9.38 -4.15,-12.18 -2.76,-2.8 -6.71,-4.2 -11.84,-4.2 h -7.35 v 33.5 h 8.79 c 4.45,0 7.99,-1.53 10.61,-4.61 2.63,-3.07 3.94,-7.24 3.94,-12.51 z"
             id="path234" />
          <path
             class="st19"
             d="m 268.8,252.4 14.94,-53.3 h 5.06 l -14.9,53.3 z"
             id="path236" />
          <path
             class="st20"
             d="m 300.63,251.52 v -2.57 l 7.49,-0.95 v -39.9 h -1.79 c -5.37,0 -9.14,0.23 -11.32,0.7 l -0.95,8.75 h -3.2 v -13.18 h 45.8 v 13.18 h -3.23 l -0.95,-8.75 c -1.95,-0.42 -5.79,-0.63 -11.53,-0.63 h -1.72 V 248 l 7.49,0.95 v 2.57 z"
             id="path238" />
        </g>
      </g>
    </g>
  </g>
  <style
     type="text/css"
     id="style128">
	.st0{fill:#183668;}
	.st1{fill:#E71C2D;}
	.st2{fill:#025587;}
	.st3{fill:#CF9C29;}
	.st4{fill:#5DB746;}
	.st5{fill:#279748;}
	.st6{fill:#007DB8;}
	.st7{fill:#BF1F33;}
	.st8{fill:#48773E;}
	.st9{fill:#EB402B;}
	.st10{fill:#CB892A;}
	.st11{fill:#00AAD5;}
	.st12{fill:#F9B313;}
	.st13{fill:#F59926;}
	.st14{fill:#8B1838;}
	.st15{fill:#DD1480;}
	.st16{fill:#EF6D25;}
	.st17{fill:#3F7E44;}
	.st18{fill:#19486A;}
	.st19{fill:#F99924;}
	.st20{fill:#BB872E;}
	.st21{fill:#006934;}
</style>
</svg>
